# xmcd CD database file
#
# Track frame offsets:
#	150
#	26870
#	46003
#	76385
#	90780
#	112350
#	141573
#	157963
#	173998
#	189073
#	210465
#
# Disc length: 3040 seconds
#
# Revision: 1
# Processed by: cddbd v1.4PL0 Copyright (c) Steve Scherf et al.
# Submitted via: CDex 1.50beta9
#
DISCID=890bde0b
DTITLE=Whitworth College Jazz Ensemble - Right On!
DYEAR=1994
DGENRE=Jazz
TTITLE0=Right On!
TTITLE1=Cherokee
TTITLE2=Truth
TTITLE3=Deedle's Blues
TTITLE4=Travelin' Light
TTITLE5=Altered States
TTITLE6=Isfahan
TTITLE7=Little Pony
TTITLE8=What Now, My Love?
TTITLE9=Strayhorn
TTITLE10=Emanon
EXTD=YEAR: 1994
EXTT0=
EXTT1=
EXTT2=
EXTT3=
EXTT4=
EXTT5=
EXTT6=
EXTT7=
EXTT8=
EXTT9=
EXTT10=
PLAYORDER=
